<svg width="100" height="100" viewBox="0 0 100 100" fill="none" xmlns="http://www.w3.org/2000/svg">
  <circle cx="50" cy="50" r="45" fill="#8B5CF6"/>
  <path d="M62.5 37.5C62.5 30.5964 56.9036 25 50 25C43.0964 25 37.5 30.5964 37.5 37.5C37.5 43.1536 41.5214 47.7679 46.875 49.3482" stroke="white" stroke-width="5" stroke-linecap="round" stroke-linejoin="round"/>
  <path d="M37.5 62.5C37.5 69.4036 43.0964 75 50 75C56.9036 75 62.5 69.4036 62.5 62.5C62.5 56.8464 58.4786 52.2321 53.125 50.6518" stroke="white" stroke-width="5" stroke-linecap="round" stroke-linejoin="round"/>
  <path d="M25 50H75" stroke="white" stroke-width="5" stroke-linecap="round" stroke-linejoin="round"/>
  <path d="M50 25C54.6875 31.25 54.6875 37.5 50 50" stroke="white" stroke-width="5" stroke-linecap="round" stroke-linejoin="round"/>
  <path d="M50 75C45.3125 68.75 45.3125 62.5 50 50" stroke="white" stroke-width="5" stroke-linecap="round" stroke-linejoin="round"/>
</svg>
